<?xml version="1.0" encoding="UTF-8" standalone="no"?>
<svg
   xmlns:dc="http://purl.org/dc/elements/1.1/"
   xmlns:cc="http://creativecommons.org/ns#"
   xmlns:rdf="http://www.w3.org/1999/02/22-rdf-syntax-ns#"
   xmlns:svg="http://www.w3.org/2000/svg"
   xmlns="http://www.w3.org/2000/svg"
   xmlns:sodipodi="http://sodipodi.sourceforge.net/DTD/sodipodi-0.dtd"
   xmlns:inkscape="http://www.inkscape.org/namespaces/inkscape"
   width="24"
   height="24"
   viewBox="0 0 24 24"
   fill="none"
   version="1.1"
   id="svg4"
   sodipodi:docname="Icon - Cancel.svg"
   inkscape:version="0.92.5 (2060ec1f9f, 2020-04-08)">
  <metadata
     id="metadata10">
    <rdf:RDF>
      <cc:Work
         rdf:about="">
        <dc:format>image/svg+xml</dc:format>
        <dc:type
           rdf:resource="http://purl.org/dc/dcmitype/StillImage" />
      </cc:Work>
    </rdf:RDF>
  </metadata>
  <defs
     id="defs8" />
  <sodipodi:namedview
     pagecolor="#ffffff"
     bordercolor="#666666"
     borderopacity="1"
     objecttolerance="10"
     gridtolerance="10"
     guidetolerance="10"
     inkscape:pageopacity="0"
     inkscape:pageshadow="2"
     inkscape:window-width="1920"
     inkscape:window-height="1026"
     id="namedview6"
     showgrid="false"
     inkscape:zoom="9.8333333"
     inkscape:cx="10.220339"
     inkscape:cy="12"
     inkscape:window-x="0"
     inkscape:window-y="0"
     inkscape:window-maximized="1"
     inkscape:current-layer="svg4" />
  <path
     d="m 2.6620141,2.6620141 c 0.5437164,-0.5437024 1.425235,-0.5437024 1.9689514,0 l 7.3690395,7.3690669 7.369053,-7.3690669 c 0.543675,-0.5437024 1.425249,-0.5437024 1.968924,0 0.543674,0.5437164 0.543674,1.425235 0,1.9689514 l -7.369054,7.3690395 7.369054,7.369053 c 0.543674,0.543675 0.543674,1.425249 0,1.968924 -0.543675,0.543674 -1.425249,0.543674 -1.968924,0 l -7.369053,-7.369054 -7.3690395,7.369054 c -0.5437164,0.543674 -1.425235,0.543674 -1.9689514,0 -0.5437024,-0.543675 -0.5437024,-1.425249 0,-1.968924 L 10.031081,12.000005 2.6620141,4.6309655 c -0.5437024,-0.5437164 -0.5437024,-1.425235 0,-1.9689514 z"
     id="path2"
     inkscape:connector-curvature="0"
     style="clip-rule:evenodd;fill:#67798e;fill-rule:evenodd;stroke-width:1.39225256" />
</svg>
